<?xml version="1.0" encoding="UTF-8"?>
<svg width="126px" height="33px" viewBox="0 0 126 33" version="1.1" xmlns="http://www.w3.org/2000/svg" xmlns:xlink="http://www.w3.org/1999/xlink">
    <!-- Generator: Sketch 48.2 (47327) - http://www.bohemiancoding.com/sketch -->
    <title>Logotipo</title>
    <desc>Created with Sketch.</desc>
    <defs></defs>
    <g id="HOME" stroke="none" stroke-width="1" fill="none" fill-rule="evenodd" transform="translate(-80.000000, -35.000000)">
        <g id="Group-57" transform="translate(80.000000, 25.000000)" fill-rule="nonzero">
            <g id="Group-66">
                <g id="Header">
                    <g id="Menú">
                        <g id="right-arrow-forward-2">
                            <g id="Group-4">
                                <g id="Group-5">
                                    <g id="Group-88">
                                        <g id="Logotipo" transform="translate(0.000000, 10.000000)">
                                            <g id="Group-3">
                                                <g id="Group-2">
                                                    <g id="Group">
                                                        <path d="M32.2923572,18.7558741 L34.219356,21.4984674 C32.4745826,22.8412659 30.5280378,23.5126654 28.3797216,23.5126654 C25.9467914,23.5126654 23.9297466,22.7463954 22.3285876,21.2138549 C20.7274286,19.6813145 19.9268488,17.7836387 19.9268488,15.5208277 C19.9268488,13.2785874 20.7014354,11.3860545 22.250609,9.8432287 C23.7997827,8.30040288 25.7180545,7.52898997 28.0054246,7.52898997 C30.1472351,7.52898997 31.8939542,8.20783333 33.2455819,9.56552005 C34.5972096,10.9232068 35.2730237,12.6100298 35.2730237,14.6259887 C35.2730237,15.3665451 35.1794495,16.1276727 34.992301,16.9093709 L24.1376895,16.9093709 C24.4080152,17.8762083 24.9226735,18.6219076 25.6816644,19.1464684 C26.4406553,19.6710291 27.3815964,19.9333095 28.5044872,19.9333095 C29.8305888,19.9333095 31.0932121,19.5408309 32.2923572,18.7558741 Z M16.8176879,15.5917941 C16.8139751,17.8272888 16.0030026,19.7146789 14.3847706,21.2539648 C12.7628171,22.7967906 10.7977581,23.5682035 8.48959362,23.5682035 C6.1814291,23.5682035 4.23196582,22.8019335 2.64120378,21.2693931 C1.05044175,19.7368526 0.255060729,17.8391769 0.255060729,15.5763658 C0.255060729,13.3341255 1.05564047,11.4467355 2.65679949,9.91419508 C4.2579585,8.38165461 6.21262051,7.61538462 8.52078504,7.61538462 L8.52078504,11.4107361 C7.3563058,11.4107361 6.39976899,11.8067279 5.65117509,12.598712 C4.90258119,13.3906961 4.52828424,14.3935329 4.52828424,15.6072223 C4.52828424,16.8209118 4.90258119,17.8134632 5.65117509,18.5848762 C6.39976899,19.3562891 7.3563058,19.7419955 8.52078504,19.7419955 C9.66447032,19.7419955 10.6158084,19.3511462 11.3747993,18.5694479 C12.1337902,17.7877496 12.5132858,16.8003411 12.5132858,15.6072223 C12.5132858,15.6020759 12.5132788,15.5969332 12.5132647,15.5917941 L16.817688,15.5917941 Z M13.0080972,24.8806354 L16.8340081,24.8806354 C16.8340081,29.359892 13.085559,32.9959884 8.45524086,32.9959884 C3.82492269,32.9959884 0.0764736298,29.359892 0.0764736298,24.8806354 L3.92386675,24.8806354 C3.92386675,27.3177425 5.95548485,29.2884667 8.45524086,29.2884667 C10.9549969,29.2884667 13.0080972,27.3177425 13.0080972,24.8806354 Z M66.4488142,7.52898997 C68.6322131,7.52898997 70.4257193,8.28497462 71.8293329,9.79694392 C73.2329464,11.3089132 73.9347532,13.2168743 73.9347532,15.5208277 C73.9347532,17.8247811 73.2329464,19.7327422 71.8293329,21.2447115 C70.4257193,22.7566808 68.6322131,23.5126654 66.4488142,23.5126654 C64.2654153,23.5126654 62.6122705,22.7515379 61.4893796,21.2292832 L61.4893796,23.1423872 L57.6216445,23.1423872 L57.6216445,0 L61.8324852,0 L61.8324852,9.34952444 C62.9345816,8.13583495 64.4733582,7.52898997 66.4488142,7.52898997 Z M65.9240896,19.7173139 C67.0677749,19.7173139 68.019113,19.3316075 68.7781039,18.5601945 C69.5370947,17.7887816 69.9165904,16.7653737 69.9165904,15.4899712 C69.9165904,14.2351394 69.5318965,13.2220172 68.7625082,12.4506043 C67.9931198,11.6791914 67.0469805,11.293485 65.9240896,11.293485 C64.8427872,11.293485 63.9226405,11.6586202 63.1636496,12.3888913 C62.4046587,13.1191623 62.0251631,14.163141 62.0251631,15.5208277 C62.0251631,16.8990856 62.409857,17.9430642 63.1792453,18.6527641 C63.9486337,19.362464 64.8635816,19.7173139 65.9240896,19.7173139 Z M81.4518836,0 L81.4518836,23.1423872 L77.2410429,23.1423872 L77.2410429,0 L81.4518836,0 Z M87.2263984,0.144736842 C87.9749923,0.144736842 88.6144162,0.391588972 89.1446702,0.885293233 C89.6749243,1.37899749 89.9400513,1.99612782 89.9400513,2.73668421 C89.9400513,3.45666943 89.6749243,4.06351441 89.1446702,4.55721867 C88.6144162,5.05092293 87.9749923,5.29777506 87.2263984,5.29777506 C86.4778045,5.29777506 85.8435792,5.05092293 85.3237222,4.55721867 C84.8038652,4.06351441 84.5439369,3.45666943 84.5439369,2.73668421 C84.5439369,1.99612782 84.8038652,1.37899749 85.3237222,0.885293233 C85.8435792,0.391588972 86.4778045,0.144736842 87.2263984,0.144736842 Z M89.338446,7.52631579 L89.338446,23.139713 L85.1276053,23.139713 L85.1276053,7.52631579 L89.338446,7.52631579 Z M101.39227,7.52898997 C103.180577,7.52898997 104.594588,8.08955018 105.634302,9.21067011 C106.674016,10.33179 107.193873,11.8180457 107.193873,13.6694367 L107.193873,23.1423872 L103.014223,23.1423872 L103.014223,14.224854 C103.014223,13.3403004 102.749096,12.6254581 102.218842,12.0803261 C101.688588,11.5351942 100.997178,11.2626284 100.144613,11.2626284 C99.2920483,11.2626284 98.5902415,11.5351942 98.039193,12.0803261 C97.4881446,12.6254581 97.2126206,13.3403004 97.2126206,14.224854 L97.2126206,23.1423872 L93.0017799,23.1423872 L93.0017799,7.86841165 L96.8695151,7.86841165 L96.8695151,9.25695489 C98.0339943,8.10497844 99.5415796,7.52898997 101.39227,7.52898997 Z M125.960044,23.1423872 L121.156567,23.1423872 L114.949475,14.7185583 L114.949475,23.1423872 L110.738635,23.1423872 L110.738635,0 L114.949475,0 L114.949475,14.4099931 L120.501547,7.86841165 L125.492173,7.86841165 L119.69057,14.6259887 L125.960044,23.1423872 Z M27.8494676,10.8923503 C26.9553136,10.8923503 26.1755283,11.1700589 25.5101116,11.7254762 C24.844695,12.2808935 24.3872208,13.0317352 24.1376895,13.9780019 L31.1869487,13.9780019 C31.1661543,13.0317352 30.8334462,12.2808935 30.1888235,11.7254762 C29.5442008,11.1700589 28.7644155,10.8923503 27.8494676,10.8923503 Z M46.5248336,7.61538462 C48.8122037,7.61538462 50.7668657,8.38165461 52.3888192,9.91419508 C54.0107726,11.4467355 54.8217493,13.3341255 54.8217493,15.5763658 C54.8217493,17.8186062 54.0107726,19.711139 52.3888192,21.2539648 C50.7668657,22.7967906 48.8018067,23.5682035 46.4936422,23.5682035 C44.1854777,23.5682035 42.2360144,22.8019335 40.6452524,21.2693931 C39.0544903,19.7368526 38.2591093,17.8391769 38.2591093,15.5763658 C38.2591093,13.3341255 39.0596891,11.4467355 40.6608481,9.91419508 C42.2620071,8.38165461 44.2166691,7.61538462 46.5248336,7.61538462 Z M46.5248336,11.4107361 C45.3603544,11.4107361 44.4038176,11.8067279 43.6552237,12.598712 C42.9066298,13.3906961 42.5323328,14.3935329 42.5323328,15.6072223 C42.5323328,16.8209118 42.9066298,17.8134632 43.6552237,18.5848762 C44.4038176,19.3562891 45.3603544,19.7419955 46.5248336,19.7419955 C47.6685189,19.7419955 48.619857,19.3511462 49.3788479,18.5694479 C50.1378387,17.7877496 50.5173344,16.8003411 50.5173344,15.6072223 C50.5173344,14.4141035 50.1378387,13.4164097 49.3788479,12.6141403 C48.619857,11.8118708 47.6685189,11.4107361 46.5248336,11.4107361 Z" id="Combined-Shape" fill="#FFFFFF"></path>
                                                        <path d="M18.1093117,7.18419505 C18.1093117,9.88788656 14.9966899,12.3918725 14.9966899,12.3918725 C14.8148168,12.5381919 14.517167,12.5381919 14.3352939,12.3918725 C14.3352939,12.3918725 11.2226721,9.88788656 11.2226721,7.18419505 C11.2227067,5.31939929 12.7643247,3.80769231 14.6660006,3.80769231 C16.5676764,3.80769231 18.1093117,5.31939929 18.1093117,7.18419505 Z" id="Combined-Shape" fill="#6CA2D4"></path>
                                                    </g>
                                                </g>
                                            </g>
                                        </g>
                                    </g>
                                </g>
                            </g>
                        </g>
                    </g>
                </g>
            </g>
        </g>
    </g>
</svg>